<?xml version="1.0" encoding="iso-8859-1"?>
<!-- Generator: Adobe Illustrator 19.0.0, SVG Export Plug-In . SVG Version: 6.00 Build 0)  -->
<svg version="1.1" id="Capa_1" xmlns="http://www.w3.org/2000/svg" xmlns:xlink="http://www.w3.org/1999/xlink" x="0px" y="0px"
	 viewBox="0 0 414.487 414.487" style="enable-background:new 0 0 414.487 414.487;" xml:space="preserve">
<path style="fill:#DBDBDB;" d="M413.684,265.591l-21.6-123.2c-7.2-41.6-47.2-69.6-88.8-62.4c-3.2,0.8-7.2,1.6-10.4,2.4
	c-16,4.8-30.4,15.2-40,28.8c-30.4,8-62.4,8-92.8,0.8c-9.6-14.4-24-24.8-40-29.6c-40-12.8-83.2,9.6-96,49.6
	c-0.8,3.2-1.6,6.4-1.6,10.4l-21.6,123.2c-5.6,32,16,63.2,48,68.8c24.8,4,49.6-7.2,61.6-28.8l26.4-16.8c42.4-27.2,96-27.2,138.4,0
	l28.8,18.4c16.8,28,53.6,36.8,81.6,20C406.484,313.591,417.684,289.591,413.684,265.591L413.684,265.591z"/>
<path style="fill:#EAEAE8;" d="M9.684,211.991c16.8,33.6,50.4,54.4,88,54.4h218.4c37.6,0,71.2-21.6,88-54.4l-12-69.6
	c-7.2-41.6-47.2-69.6-88.8-62.4c-3.2,0.8-7.2,1.6-10.4,2.4c-16,4.8-30.4,15.2-40,28.8c-30.4,8-62.4,8-92.8,0.8
	c-9.6-14.4-24-24.8-40-29.6c-40-12.8-83.2,9.6-96,49.6c-0.8,3.2-1.6,6.4-1.6,10.4L9.684,211.991z"/>
<circle style="fill:#89B140;" cx="350.484" cy="190.391" r="16"/>
<circle style="fill:#FBB540;" cx="270.484" cy="190.391" r="16"/>
<circle style="fill:#1F6C8C;" cx="310.484" cy="150.391" r="16"/>
<circle style="fill:#F86688;" cx="310.484" cy="230.391" r="16"/>
<g>
	<path style="fill:#8ACED8;" d="M190.484,246.391h-16c-4.8,0-8-3.2-8-8s3.2-8,8-8h16c4.8,0,8,3.2,8,8
		S195.284,246.391,190.484,246.391z"/>
	<path style="fill:#8ACED8;" d="M238.484,246.391h-16c-4.8,0-8-3.2-8-8s3.2-8,8-8h16c4.8,0,8,3.2,8,8
		S243.284,246.391,238.484,246.391z"/>
</g>
<path style="fill:#62666A;" d="M150.484,174.391h-24v-24h-32v24h-24v32h24v24h32v-24h24V174.391z"/>
<g>
</g>
<g>
</g>
<g>
</g>
<g>
</g>
<g>
</g>
<g>
</g>
<g>
</g>
<g>
</g>
<g>
</g>
<g>
</g>
<g>
</g>
<g>
</g>
<g>
</g>
<g>
</g>
<g>
</g>
</svg>
