<svg xmlns="http://www.w3.org/2000/svg" xmlns:xlink="http://www.w3.org/1999/xlink" width="336" height="336" viewBox="0 0 336 336"><defs><filter id="a" x="0" y="0" width="336" height="336" filterUnits="userSpaceOnUse"><feOffset input="SourceAlpha"/><feGaussianBlur stdDeviation="6" result="b"/><feFlood flood-color="#6f6eff" flood-opacity="0.502"/><feComposite operator="in" in2="b"/><feComposite in="SourceGraphic"/></filter><filter id="c" x="130.667" y="133.667" width="74.667" height="74.667" filterUnits="userSpaceOnUse"><feOffset dy="3" input="SourceAlpha"/><feGaussianBlur stdDeviation="3" result="d"/><feFlood flood-opacity="0.161"/><feComposite operator="in" in2="d"/><feComposite in="SourceGraphic"/></filter><filter id="e" x="130.667" y="77" width="74.667" height="74.667" filterUnits="userSpaceOnUse"><feOffset dy="3" input="SourceAlpha"/><feGaussianBlur stdDeviation="3" result="f"/><feFlood flood-opacity="0.161"/><feComposite operator="in" in2="f"/><feComposite in="SourceGraphic"/></filter><filter id="g" x="187.333" y="77" width="74.667" height="74.667" filterUnits="userSpaceOnUse"><feOffset dy="3" input="SourceAlpha"/><feGaussianBlur stdDeviation="3" result="h"/><feFlood flood-opacity="0.161"/><feComposite operator="in" in2="h"/><feComposite in="SourceGraphic"/></filter><filter id="i" x="130.667" y="190.333" width="74.667" height="74.667" filterUnits="userSpaceOnUse"><feOffset dy="3" input="SourceAlpha"/><feGaussianBlur stdDeviation="3" result="j"/><feFlood flood-opacity="0.161"/><feComposite operator="in" in2="j"/><feComposite in="SourceGraphic"/></filter><filter id="k" x="187.333" y="190.333" width="74.667" height="74.667" filterUnits="userSpaceOnUse"><feOffset dy="3" input="SourceAlpha"/><feGaussianBlur stdDeviation="3" result="l"/><feFlood flood-opacity="0.161"/><feComposite operator="in" in2="l"/><feComposite in="SourceGraphic"/></filter><filter id="m" x="74" y="133.667" width="74.667" height="74.667" filterUnits="userSpaceOnUse"><feOffset dy="3" input="SourceAlpha"/><feGaussianBlur stdDeviation="3" result="n"/><feFlood flood-opacity="0.161"/><feComposite operator="in" in2="n"/><feComposite in="SourceGraphic"/></filter></defs><g transform="translate(-80 -72)"><g transform="translate(98 90)"><g transform="matrix(1, 0, 0, 1, -18, -18)" filter="url(#a)"><rect width="300" height="300" rx="4" transform="translate(18 18)" fill="#6f6eff"/></g></g><g transform="translate(59 96)"><g transform="matrix(1, 0, 0, 1, 21, -24)" filter="url(#c)"><circle cx="28.333" cy="28.333" r="28.333" transform="translate(139.67 139.67)" fill="#fff"/></g><g transform="matrix(1, 0, 0, 1, 21, -24)" filter="url(#e)"><circle cx="28.333" cy="28.333" r="28.333" transform="translate(139.67 83)" fill="#fff"/></g><g transform="matrix(1, 0, 0, 1, 21, -24)" filter="url(#g)"><circle cx="28.333" cy="28.333" r="28.333" transform="translate(196.33 83)" fill="#fff"/></g><g transform="matrix(1, 0, 0, 1, 21, -24)" filter="url(#i)"><circle cx="28.333" cy="28.333" r="28.333" transform="translate(139.67 196.33)" fill="#fff"/></g><g transform="matrix(1, 0, 0, 1, 21, -24)" filter="url(#k)"><circle cx="28.333" cy="28.333" r="28.333" transform="translate(196.33 196.33)" fill="#fff"/></g><g transform="matrix(1, 0, 0, 1, 21, -24)" filter="url(#m)"><circle cx="28.333" cy="28.333" r="28.333" transform="translate(83 139.67)" fill="#fff"/></g></g></g></svg>