<svg xmlns="http://www.w3.org/2000/svg" xmlns:xlink="http://www.w3.org/1999/xlink" width="648" height="236" viewBox="0 0 648 236"><defs><filter id="a" x="0" y="0" width="236" height="236" filterUnits="userSpaceOnUse"><feOffset input="SourceAlpha"/><feGaussianBlur stdDeviation="6" result="b"/><feFlood flood-color="#6f6eff" flood-opacity="0.502"/><feComposite operator="in" in2="b"/><feComposite in="SourceGraphic"/></filter><filter id="c" x="85.19" y="88.19" width="65.619" height="65.619" filterUnits="userSpaceOnUse"><feOffset dy="3" input="SourceAlpha"/><feGaussianBlur stdDeviation="3" result="d"/><feFlood flood-opacity="0.161"/><feComposite operator="in" in2="d"/><feComposite in="SourceGraphic"/></filter><filter id="e" x="85.19" y="40.571" width="65.619" height="65.619" filterUnits="userSpaceOnUse"><feOffset dy="3" input="SourceAlpha"/><feGaussianBlur stdDeviation="3" result="f"/><feFlood flood-opacity="0.161"/><feComposite operator="in" in2="f"/><feComposite in="SourceGraphic"/></filter><filter id="g" x="132.81" y="40.571" width="65.619" height="65.619" filterUnits="userSpaceOnUse"><feOffset dy="3" input="SourceAlpha"/><feGaussianBlur stdDeviation="3" result="h"/><feFlood flood-opacity="0.161"/><feComposite operator="in" in2="h"/><feComposite in="SourceGraphic"/></filter><filter id="i" x="85.19" y="135.809" width="65.619" height="65.619" filterUnits="userSpaceOnUse"><feOffset dy="3" input="SourceAlpha"/><feGaussianBlur stdDeviation="3" result="j"/><feFlood flood-opacity="0.161"/><feComposite operator="in" in2="j"/><feComposite in="SourceGraphic"/></filter><filter id="k" x="132.81" y="135.809" width="65.619" height="65.619" filterUnits="userSpaceOnUse"><feOffset dy="3" input="SourceAlpha"/><feGaussianBlur stdDeviation="3" result="l"/><feFlood flood-opacity="0.161"/><feComposite operator="in" in2="l"/><feComposite in="SourceGraphic"/></filter><filter id="m" x="37.571" y="88.19" width="65.619" height="65.619" filterUnits="userSpaceOnUse"><feOffset dy="3" input="SourceAlpha"/><feGaussianBlur stdDeviation="3" result="n"/><feFlood flood-opacity="0.161"/><feComposite operator="in" in2="n"/><feComposite in="SourceGraphic"/></filter></defs><g transform="translate(33 34)"><g transform="translate(-15 -16)"><g transform="matrix(1, 0, 0, 1, -18, -18)" filter="url(#a)"><rect width="200" height="200" rx="4" transform="translate(18 18)" fill="#6f6eff"/></g><g transform="translate(28.571 28.571)"><g transform="matrix(1, 0, 0, 1, -46.57, -46.57)" filter="url(#c)"><circle cx="23.81" cy="23.81" r="23.81" transform="translate(94.19 94.19)" fill="#fff"/></g><g transform="matrix(1, 0, 0, 1, -46.57, -46.57)" filter="url(#e)"><circle cx="23.81" cy="23.81" r="23.81" transform="translate(94.19 46.57)" fill="#fff"/></g><g transform="matrix(1, 0, 0, 1, -46.57, -46.57)" filter="url(#g)"><circle cx="23.81" cy="23.81" r="23.81" transform="translate(141.81 46.57)" fill="#fff"/></g><g transform="matrix(1, 0, 0, 1, -46.57, -46.57)" filter="url(#i)"><circle cx="23.81" cy="23.81" r="23.81" transform="translate(94.19 141.81)" fill="#fff"/></g><g transform="matrix(1, 0, 0, 1, -46.57, -46.57)" filter="url(#k)"><circle cx="23.81" cy="23.81" r="23.81" transform="translate(141.81 141.81)" fill="#fff"/></g><g transform="matrix(1, 0, 0, 1, -46.57, -46.57)" filter="url(#m)"><circle cx="23.81" cy="23.81" r="23.81" transform="translate(46.57 94.19)" fill="#fff"/></g></g></g><text transform="translate(220 92)" fill="#fff" font-size="100" font-family="DoHyeon-Regular, Do Hyeon"><tspan x="0" y="0">GAMERS</tspan><tspan y="0" font-family="SegoeUI, Segoe UI"> </tspan></text><text transform="translate(220 117)" fill="#fff" font-size="50" font-family="DoHyeon-Regular, Do Hyeon"><tspan x="0" y="40">UNIPANAMERICANA</tspan></text></g></svg>