<svg xmlns="http://www.w3.org/2000/svg" width="100" height="100" viewBox="0 0 100 100"><g transform="translate(-21 -86)"><rect width="40" height="40" rx="2" transform="translate(24.333 89.333)" fill="#2d2e3c"/><rect width="40" height="40" rx="2" transform="translate(77.667 89.333)" fill="#2d2e3c"/><rect width="40" height="40" rx="2" transform="translate(24.333 142.667)" fill="#2d2e3c"/><rect width="40" height="40" rx="8" transform="translate(77.667 142.667)" fill="#2d2e3c"/><g transform="translate(21 86)"><path d="M33.984,46.875H12.891A12.905,12.905,0,0,1,0,33.984V12.891A12.905,12.905,0,0,1,12.891,0H33.984A12.905,12.905,0,0,1,46.875,12.891V33.984A12.905,12.905,0,0,1,33.984,46.875ZM12.891,6.25A6.648,6.648,0,0,0,6.25,12.891V33.984a6.648,6.648,0,0,0,6.641,6.641H33.984a6.648,6.648,0,0,0,6.641-6.641V12.891A6.648,6.648,0,0,0,33.984,6.25Z" fill="#379bff"/><path d="M305.984,46.875H284.891A12.905,12.905,0,0,1,272,33.984V12.891A12.905,12.905,0,0,1,284.891,0h21.094a12.905,12.905,0,0,1,12.891,12.891V33.984A12.905,12.905,0,0,1,305.984,46.875ZM284.891,6.25a6.648,6.648,0,0,0-6.641,6.641V33.984a6.648,6.648,0,0,0,6.641,6.641h21.094a6.648,6.648,0,0,0,6.641-6.641V12.891a6.648,6.648,0,0,0-6.641-6.641Z" transform="translate(-218.875)" fill="#379bff"/><path d="M295.437,318.875a23.438,23.438,0,1,1,23.438-23.437A23.464,23.464,0,0,1,295.437,318.875Zm0-40.625a17.188,17.188,0,1,0,17.188,17.188A17.207,17.207,0,0,0,295.437,278.25Z" transform="translate(-218.875 -218.875)" fill="#379bff"/><path d="M33.984,318.875H12.891A12.905,12.905,0,0,1,0,305.984V284.891A12.905,12.905,0,0,1,12.891,272H33.984a12.905,12.905,0,0,1,12.891,12.891v21.094A12.905,12.905,0,0,1,33.984,318.875ZM12.891,278.25a6.648,6.648,0,0,0-6.641,6.641v21.094a6.648,6.648,0,0,0,6.641,6.641H33.984a6.648,6.648,0,0,0,6.641-6.641V284.891a6.648,6.648,0,0,0-6.641-6.641Z" transform="translate(0 -218.875)" fill="#379bff"/></g></g></svg>